<svg xmlns="http://www.w3.org/2000/svg" width="32.773" height="36.483" viewBox="0 0 32.773 36.483">
  <path d="M135.48,89.224a10.256,10.256,0,0,0,3.445-7.662V71.635a1.161,1.161,0,0,0-.283-1.066c-2.046-2.122-5.9-3.439-10.069-3.439-3.922,0-7.535,1.156-9.664,3.092l0,0a1.177,1.177,0,0,0-.562,1V81.562a10.257,10.257,0,0,0,3.492,7.7,13.762,13.762,0,0,0-9.47,11.855,2.283,2.283,0,0,0,2.274,2.492h28.2a2.285,2.285,0,0,0,2.274-2.495A13.854,13.854,0,0,0,135.48,89.224Zm1.083-17.347v7.645a19.244,19.244,0,0,0-15.856-.015V71.8a12.622,12.622,0,0,1,7.866-2.313C131.82,69.492,134.869,70.42,136.564,71.876ZM120.739,82.193l.036.045c1.609-1.279,4.611-2.073,7.834-2.073,3.287,0,6.357.844,7.917,2.153a7.923,7.923,0,0,1-15.786-.125Zm-6.012,19.058a11.581,11.581,0,0,1,6.326-9.1,7.779,7.779,0,0,0-.369,2.349v.612a2.451,2.451,0,1,0,2.362-.076V94.5a5.392,5.392,0,0,1,1.2-3.39c.12-.02.237-.048.357-.064l.026-.006a10.289,10.289,0,0,0,8.009,0,5.375,5.375,0,0,1,1.247,3.456v.509a2.416,2.416,0,0,0-1.221,2.093v1.449a.984.984,0,0,0,1.968,0V97.1a.455.455,0,0,1,.266-.414,1.191,1.191,0,0,0,.168.017,1.155,1.155,0,0,0,.193-.02.455.455,0,0,1,.27.416v1.449a.984.984,0,0,0,1.968,0V97.1a2.416,2.416,0,0,0-1.25-2.109V94.5a7.769,7.769,0,0,0-.474-2.658,11.489,11.489,0,0,1,6.99,9.411H114.727Zm7.208-4.528a.482.482,0,1,1-.482.482A.483.483,0,0,1,121.936,96.724Z" transform="translate(-112.357 -67.13)" fill="#2d5215"/>
  <path d="M439.741,166.6h.657v.657a1.181,1.181,0,1,0,2.362,0V166.6h.657a1.181,1.181,0,1,0,0-2.362h-.657v-.657a1.181,1.181,0,1,0-2.362,0v.657h-.657a1.181,1.181,0,1,0,0,2.362Z" transform="translate(-425.188 -158.495)" fill="#2d5215"/>
</svg>
