<svg xmlns="http://www.w3.org/2000/svg" width="34.776" height="34.68" viewBox="0 0 34.776 34.68">
  <path id="shuju" d="M180.088,166.447v15.9h15.943v.383a16.325,16.325,0,1,1-16.713-16.276l.388-.005h.383Zm-2.893,3.172-.255.051A13.37,13.37,0,1,0,192.8,185.484l.051-.254H179.7a2.373,2.373,0,0,1-2.5-2.3l-.006-.2Zm5.7-5.292a15.15,15.15,0,0,1,15.258,14.83l0,.391v.383H182.51v-15.6h.383ZM185.4,167.5v9.544h9.573l-.051-.249a12.255,12.255,0,0,0-9.269-9.243Z" transform="translate(-163.379 -164.326)" fill="#2d5215"/>
</svg>
