<svg xmlns="http://www.w3.org/2000/svg" width="111.297" height="116.132" viewBox="0 0 111.297 116.132">
  <g id="g_483" data-name="g 483" transform="translate(-30.703 -426.868)">
    <g id="g_100" data-name="g 100" transform="translate(-124.04 -139.673)">
      <g id="g_99" data-name="g 99" transform="translate(154.743 566.541)">
        <path id="ro_159" data-name="ro 159" d="M113.889,89.319a1.085,1.085,0,1,1-.257,1.854,1.1,1.1,0,0,1,.257-1.854Z" transform="translate(-106.732 -89.232)" fill="#618d46"/>
        <path id="ro_160" data-name="ro 160" d="M576.976,89.331a1.086,1.086,0,0,1,1.508.957,1.079,1.079,0,1,1-1.508-.957Z" transform="translate(-479.899 -89.24)" fill="#618d46"/>
        <path id="ro_161" data-name="ro 161" d="M89.222,114.812a1.556,1.556,0,0,1,.991,0,3.528,3.528,0,0,1,1.009.919,14.093,14.093,0,0,1,2.62,3.8,5.831,5.831,0,0,1,.017,4.7,6.078,6.078,0,0,1,.234,1.028c.375,1.038.942,1.994,1.318,3.03a13.743,13.743,0,0,1,.971,3.729,16.7,16.7,0,0,0,1.393-1.954,12.424,12.424,0,0,0,1.161-2.766,5.738,5.738,0,0,1-1.171-2.567,4.341,4.341,0,0,1,.291-2.958,10.682,10.682,0,0,1,3.278-3.249c.8-.539,1.6-1.085,2.406-1.62a1.131,1.131,0,0,1,1.672.818,19.794,19.794,0,0,1-.185,5.366,5.849,5.849,0,0,1-.588,1.792,3.9,3.9,0,0,1-1.429,1.387c-.485.322-1.073.429-1.574.72a1.031,1.031,0,0,0-.374.48c-.507,1.03-.743,2.173-1.3,3.181a17.86,17.86,0,0,1-1.811,2.636c-.484.568-1.078,1.032-1.565,1.6.04,1.368.036,2.736.029,4.1a36.654,36.654,0,0,1-.409,4.031,5.318,5.318,0,0,1-1.131,2.093,36.142,36.142,0,0,0,5.828,7.27,12.517,12.517,0,0,0,.068-4.983c-.049-.155-.216-.212-.344-.284a4.631,4.631,0,0,1-2.557-2.459,7.316,7.316,0,0,1-.266-4.356,10.645,10.645,0,0,1,1.772-3.416,1.446,1.446,0,0,1,1.509-.551c.626.111.991.688,1.311,1.179a9.256,9.256,0,0,1,1.422,3.459,11.69,11.69,0,0,1-.535,5.743,2.729,2.729,0,0,0,0,1.4,12.768,12.768,0,0,1-.011,2.918,11,11,0,0,1-.539,2.788,15.643,15.643,0,0,0,3.078,1.575q-.008-13.15,0-26.3a1.063,1.063,0,0,1,1.079-1.082q25.233-.006,50.466,0a1.179,1.179,0,0,1,1.126,1.3q-.006,13.106,0,26.21a18.012,18.012,0,0,0,3.389-1.7,8.742,8.742,0,0,1-.411-1.679,16.186,16.186,0,0,1-.163-3.81c.023-.426.138-.843.136-1.268a18.344,18.344,0,0,1-.66-2.524,10.607,10.607,0,0,1,.3-4.69,9.627,9.627,0,0,1,.835-1.861,6.6,6.6,0,0,1,1.021-1.37,1.449,1.449,0,0,1,1.981.13,10.567,10.567,0,0,1,1.56,2.589,7.153,7.153,0,0,1,.324,4.515,4.557,4.557,0,0,1-.682,1.6,5.541,5.541,0,0,1-2.45,1.818,12.6,12.6,0,0,0,.04,5.134,37.035,37.035,0,0,0,5.83-7.305c-.268-.361-.526-.73-.767-1.109a4.819,4.819,0,0,1-.52-2.087,41.989,41.989,0,0,1-.227-7.021c-.635-.751-1.438-1.349-2.01-2.155a14.836,14.836,0,0,1-1.553-2.477c-.468-.951-.69-2.006-1.2-2.939-.164-.36-.569-.469-.9-.6a4.76,4.76,0,0,1-2.24-1.572,6,6,0,0,1-.806-2.566,21.173,21.173,0,0,1-.188-4.248,1.865,1.865,0,0,1,.378-1.23,1.174,1.174,0,0,1,1.433-.144,25.954,25.954,0,0,1,4.892,3.771,4.216,4.216,0,0,1,1.153,3.042,6.149,6.149,0,0,1-1.166,3.35c-.268.3.064.672.138.992a11.569,11.569,0,0,0,2.266,3.89,17.332,17.332,0,0,1,1.7-5.337,6.122,6.122,0,0,0,.69-1.921,1.644,1.644,0,0,1,.153-.51,5.163,5.163,0,0,1-.443-3.076c.384-2.391,2.009-4.306,3.615-6.014a1.319,1.319,0,0,1,1.755-.137,4.225,4.225,0,0,1,1.031,1.468,7.881,7.881,0,0,1,.464,5.4,6.247,6.247,0,0,1-2.315,3.32,5.5,5.5,0,0,1-2.224.71c-.51,1.221-1.142,2.4-1.581,3.648a19.712,19.712,0,0,0-.915,6.836,30.8,30.8,0,0,0,.409,6.29,2.254,2.254,0,0,0,.233.425c1.133-1.923,2.38-3.777,3.687-5.585.329-.473.737-.89,1.026-1.389a2.97,2.97,0,0,1,.195-.938,2.014,2.014,0,0,1-.186-.762,14.39,14.39,0,0,1,.5-3.984,15.488,15.488,0,0,1,1.541-3.335,5.154,5.154,0,0,1,.977-1.415,1.4,1.4,0,0,1,1.387-.13,4.573,4.573,0,0,1,1.83,2.413,7.931,7.931,0,0,1,.611,3.188,5.085,5.085,0,0,1-1.688,3.631,9.541,9.541,0,0,1-2.31,1.61,1.632,1.632,0,0,0-.534.349c-1.186,1.467-2.29,3-3.334,4.567.777.065,1.555.148,2.332.21a7.912,7.912,0,0,1,1.046-.837,8.8,8.8,0,0,1,4.87-.857,3.121,3.121,0,0,1,1.752.507,1.98,1.98,0,0,1,.29,1.749,6.109,6.109,0,0,1-2.237,3.723,3.928,3.928,0,0,1-3.184.4,4.743,4.743,0,0,1-3.032-2.531c-1.046-.129-2.1-.2-3.145-.332a70.829,70.829,0,0,1-4.77,7.127,38.985,38.985,0,0,0,4.723.579,3.414,3.414,0,0,1,1.382-1.026,12.6,12.6,0,0,1,4.034-.466,13.989,13.989,0,0,1,3.817.542,1.213,1.213,0,0,1,.87.743,1.326,1.326,0,0,1-.286,1.252c-.419.482-.882.922-1.3,1.4a5.955,5.955,0,0,1-3.585,2.154,7.136,7.136,0,0,1-4.334-.755,3.284,3.284,0,0,1-1.563-1.738,17.823,17.823,0,0,1-1.841-.187,5.738,5.738,0,0,0,.364,2.884,4.318,4.318,0,0,0,.607,1.174,1.354,1.354,0,0,1,1.007.171c.516.448,1.208.639,1.675,1.15a6.874,6.874,0,0,1,2.162,4.339,4.32,4.32,0,0,1-.461,2.549,10.7,10.7,0,0,1-1.663,2.38,1.454,1.454,0,0,1-1.773.309,9.309,9.309,0,0,1-2.423-2.578,6.793,6.793,0,0,1-.956-2.43,7.579,7.579,0,0,1,.888-4.186,15.8,15.8,0,0,1-1.051-1.951,8.2,8.2,0,0,1-.521-4.138,6.87,6.87,0,0,0-1.353-.3,17.6,17.6,0,0,1-6.035,4.554c-.777.32-1.532.692-2.305,1.013-.017,2.888,0,5.775-.009,8.663a10.133,10.133,0,0,1,2.607.53,4.85,4.85,0,0,1,.47-3.257,11.821,11.821,0,0,1,2.4-2.923,2.835,2.835,0,0,1,1.016-.742,1.433,1.433,0,0,1,1.472.385,4.624,4.624,0,0,1,.721,1.665,7.793,7.793,0,0,1-.075,4.982,3.684,3.684,0,0,1-1.945,1.748,11.7,11.7,0,0,1,3.142,2.48,28.678,28.678,0,0,1,1.7,2.311,5.129,5.129,0,0,1,3.256,1.211,5.965,5.965,0,0,1,2.151,3.277,9.528,9.528,0,0,1,.048,4.95,1.153,1.153,0,0,1-1.782.494c-.8-.7-1.835-1.1-2.58-1.876a7.944,7.944,0,0,1-1.189-1.407,10.03,10.03,0,0,1-1.248-4.757c-.407-.667-.951-1.247-1.321-1.94a6.778,6.778,0,0,1-1.9,3.791c-.316.341-.639.673-.935,1.03a1.186,1.186,0,0,1-1.55.237,3,3,0,0,1-.815-1.369,7.034,7.034,0,0,1-.513-3.4,5.136,5.136,0,0,1,1.666-3.579,14.912,14.912,0,0,0-3.2-1.344,5.608,5.608,0,0,0-1.6-.3c0,3.262.008,6.527,0,9.789a1.178,1.178,0,0,1-1.34,1.024q-24.74,0-49.48,0c-.454-.019-.976.088-1.358-.22a1.446,1.446,0,0,1-.488-1.231q0-4.688,0-9.373a14.931,14.931,0,0,0-4.486,1.652,5.027,5.027,0,0,1,1.664,3.483,7.53,7.53,0,0,1-.7,3.98,2.038,2.038,0,0,1-.674.941,1.2,1.2,0,0,1-1.343-.156c-1.337-1.377-2.759-2.911-3.006-4.9-.408.664-.893,1.273-1.344,1.908a9.236,9.236,0,0,1-1.091,4.537,6.908,6.908,0,0,1-1.324,1.622c-.732.747-1.721,1.156-2.514,1.826a1.126,1.126,0,0,1-1.528-.046,3.41,3.41,0,0,1-.56-1.77,9.3,9.3,0,0,1,.883-5.044,6.464,6.464,0,0,1,3.418-2.851,3.92,3.92,0,0,1,1.4-.188c.622-.761,1.076-1.649,1.763-2.36a11.268,11.268,0,0,1,3.127-2.442,3.434,3.434,0,0,1-2.02-1.845,8.083,8.083,0,0,1,.093-5.293,2.525,2.525,0,0,1,.948-1.539,1.556,1.556,0,0,1,1.732.264,11.048,11.048,0,0,1,3.118,4.012,4.955,4.955,0,0,1,.146,2.552,10.181,10.181,0,0,1,2.3-.5c0-2.931,0-5.86,0-8.791a43.145,43.145,0,0,1-3.946-1.943,20.192,20.192,0,0,1-4.1-3.529,8.346,8.346,0,0,0-1.331.3,8.415,8.415,0,0,1-.57,4.257c-.215.68-.758,1.2-.986,1.868a13.392,13.392,0,0,1,.915,2.941,5.281,5.281,0,0,1-.679,3.014,8.657,8.657,0,0,1-2.637,3.124,1.345,1.345,0,0,1-1.4.127,3,3,0,0,1-1.005-.955,7.551,7.551,0,0,1-1.582-3.026,6.748,6.748,0,0,1,2.342-5.828c.441-.375,1.005-.561,1.44-.944a1.26,1.26,0,0,1,1.016-.181,6.186,6.186,0,0,0,1.019-2.781,3.688,3.688,0,0,0-.023-1.277c-.616.081-1.233.154-1.853.181a3.753,3.753,0,0,1-2.3,2.092,6.451,6.451,0,0,1-5.436-.261,12.632,12.632,0,0,1-2.6-2.4,2,2,0,0,1-.756-1.3,1.125,1.125,0,0,1,.8-1.154,15.843,15.843,0,0,1,3.226-.562,14.462,14.462,0,0,1,4.742.463,3.626,3.626,0,0,1,1.379,1.019,38.659,38.659,0,0,0,4.7-.576,72.74,72.74,0,0,1-4.759-7.13c-1.042.133-2.088.219-3.134.319a4.436,4.436,0,0,1-1.228,1.6,5.249,5.249,0,0,1-2.369,1.063,3.89,3.89,0,0,1-2.231-.293A5.275,5.275,0,0,1,80,142.7a3.53,3.53,0,0,1-.181-1.853,1.213,1.213,0,0,1,.935-.844,10.49,10.49,0,0,1,3.255-.167,10.614,10.614,0,0,1,2.781.876,4.52,4.52,0,0,1,.973.832c.78-.1,1.568-.149,2.351-.228a52.605,52.605,0,0,0-3.246-4.47,3.041,3.041,0,0,0-1-.645,6.815,6.815,0,0,1-3.51-4.068,7.951,7.951,0,0,1,1.033-5.243,3.489,3.489,0,0,1,1-1.149,1.411,1.411,0,0,1,1.846.08,11.41,11.41,0,0,1,.968,1.532,12.521,12.521,0,0,1,1.911,6.852,2.384,2.384,0,0,1-.209.979c.2.335.066.765.276,1.087a64.579,64.579,0,0,1,4.627,6.823,1.1,1.1,0,0,0,.267-.528,30.206,30.206,0,0,0,.394-4.988,31.389,31.389,0,0,0-.505-6.757,34.418,34.418,0,0,0-2.016-4.93,5.316,5.316,0,0,1-2.365-.806,6.646,6.646,0,0,1-2.27-3.594,8.139,8.139,0,0,1,.671-5.229,3.111,3.111,0,0,1,1.233-1.456m.449,6.821a3.037,3.037,0,0,0,2,2.028,3,3,0,0,0,.383-2.571,9.834,9.834,0,0,0-2.2-3.645,5.252,5.252,0,0,0-.182,4.188m82.876-.5a3.024,3.024,0,0,0,.378,2.529,3.115,3.115,0,0,0,2.1-2.216,5.437,5.437,0,0,0-.253-4,9.343,9.343,0,0,0-2.222,3.683m-71.42.337a2.742,2.742,0,0,0-.941,3.8c.652-.369,1.383-.575,2.034-.944a1.994,1.994,0,0,0,.84-1.443c.167-1.035.259-2.079.33-3.125a26.7,26.7,0,0,0-2.263,1.716m60.1-1.694c.058,1.013.155,2.024.31,3.027a3.5,3.5,0,0,0,.378,1.093,2.413,2.413,0,0,0,1.114.733c.475.178.928.409,1.382.633a4.614,4.614,0,0,0,.389-1.808,2.653,2.653,0,0,0-.878-1.581,20.728,20.728,0,0,0-2.7-2.1M84.443,131.476a4.172,4.172,0,0,0,1.931,2.477c.177.1.34.272.551.284a11.974,11.974,0,0,0-.38-3.082A13.688,13.688,0,0,0,85.17,128.2a5.924,5.924,0,0,0-.727,3.277m93.665-.444a12.2,12.2,0,0,0-.435,3.265,4.785,4.785,0,0,0,2.473-2.709,5.815,5.815,0,0,0-.692-3.386,12.727,12.727,0,0,0-1.346,2.829m-70.121-.855v47.241q24.174.008,48.35.008-.015-23.626,0-47.251H107.987m-7.215,8.8a7.787,7.787,0,0,0-.9,2.087,4.659,4.659,0,0,0,.294,2.92,2.783,2.783,0,0,0,1.335,1.152,9.311,9.311,0,0,0,.263-3.114,7.39,7.39,0,0,0-.994-3.045m63.049.022c-.163.381-.366.743-.532,1.122a8.075,8.075,0,0,0-.165,4.987,4.086,4.086,0,0,0,.763-.451,2.911,2.911,0,0,0,.934-2.087,5.331,5.331,0,0,0-1-3.572m-81.769,2.989a4.982,4.982,0,0,0,.986,1.83,1.6,1.6,0,0,0,1.519.328,3.218,3.218,0,0,0,1.623-1.079,2.3,2.3,0,0,0-.426-.419,6.51,6.51,0,0,0-3.7-.661m96.869.63a2.584,2.584,0,0,0-.482.408,2.808,2.808,0,0,0,1.532,1.091,1.6,1.6,0,0,0,1.638-.335,4.6,4.6,0,0,0,.945-1.792,6.444,6.444,0,0,0-3.634.628m-94.54,9.235a4.452,4.452,0,0,0,2.6,1.671,4.945,4.945,0,0,0,3.066-.658,1.579,1.579,0,0,0-.326-.507A2.727,2.727,0,0,0,88,151.812a13.294,13.294,0,0,0-3.619.04m90.847.246a1.869,1.869,0,0,0-.682.736,4.772,4.772,0,0,0,2.931.71,4.193,4.193,0,0,0,2.738-1.685,12.146,12.146,0,0,0-3.19-.087,6.349,6.349,0,0,0-1.8.327M90.624,162.9c-.16,1.051.58,1.909,1.117,2.728a7.614,7.614,0,0,0,1.078-1.253,4.217,4.217,0,0,0,.815-2.455,13.752,13.752,0,0,0-.826-2.454,4.464,4.464,0,0,0-2.184,3.433m80.385-1.175a2.585,2.585,0,0,0,.1,1.25,6.724,6.724,0,0,0,1.754,2.658,7.127,7.127,0,0,0,1.084-1.916,3.172,3.172,0,0,0-.151-1.672,4.014,4.014,0,0,0-1.994-2.564,16.6,16.6,0,0,0-.789,2.243m-71.492,1.125a5.572,5.572,0,0,0-.021,3.426c.319.608,1.081.7,1.624,1.028a2.381,2.381,0,0,0,.2-2,7.244,7.244,0,0,0-1.8-2.456m63.814,2.348a2.468,2.468,0,0,0,.146,2.116c.514-.331,1.209-.414,1.585-.934a5.312,5.312,0,0,0,.017-3.525,7.7,7.7,0,0,0-1.748,2.343m-63.68,6.66a4.459,4.459,0,0,0-.2,1.759,5.075,5.075,0,0,0,1.236,2.272,4.032,4.032,0,0,0,.158-1.663,3.022,3.022,0,0,0-1.2-2.367m64.577.758a4.554,4.554,0,0,0-.308,3.333,7.668,7.668,0,0,0,1.084-1.8,3.21,3.21,0,0,0-.065-2.266,2.219,2.219,0,0,0-.711.736m-72.272,4.819a6.689,6.689,0,0,0-.946,3.548,5.859,5.859,0,0,0,1.783-1.616,8.068,8.068,0,0,0,1-3.323,4.8,4.8,0,0,0-1.833,1.391m78.868-1.371a8.182,8.182,0,0,0,.931,3.221,6.358,6.358,0,0,0,.852.978,10.028,10.028,0,0,0,1,.767,7.228,7.228,0,0,0-.847-3.422A4.3,4.3,0,0,0,170.825,176.068Z" transform="translate(-79.759 -109.777)" fill="#618d46"/>
        <path id="ro_162" data-name="ro 162" d="M167.443,126.11a1.086,1.086,0,1,1-.356,1.867,1.1,1.1,0,0,1,.356-1.867Z" transform="translate(-149.824 -118.902)" fill="#618d46"/>
        <path id="ro_163" data-name="ro 163" d="M523.6,126.11a1.086,1.086,0,1,1-.343,1.862A1.1,1.1,0,0,1,523.6,126.11Z" transform="translate(-436.833 -118.898)" fill="#618d46"/>
        <path id="ro_164" data-name="ro 164" d="M226.526,153.855A1.086,1.086,0,0,1,228,154.8a1.179,1.179,0,0,1-1.487,1.192,1.1,1.1,0,0,1-.655-1.506A1.377,1.377,0,0,1,226.526,153.855Z" transform="translate(-197.406 -141.247)" fill="#618d46"/>
        <path id="ro_165" data-name="ro 165" d="M464,153.876a1.178,1.178,0,0,1,1.6,1.038,1.06,1.06,0,0,1-.982,1.117,1.178,1.178,0,0,1-1.255-1.232A1.065,1.065,0,0,1,464,153.876Z" transform="translate(-388.869 -141.251)" fill="#618d46"/>
        <path id="ro_166" data-name="ro 166" d="M134.73,199.25a1.187,1.187,0,0,1,1.622,1.044,1.06,1.06,0,0,1-1,1.088,1.17,1.17,0,0,1-1.267-1.088,1.071,1.071,0,0,1,.645-1.044Z" transform="translate(-123.534 -177.819)" fill="#618d46"/>
        <path id="ro_167" data-name="ro 167" d="M555.821,199.218a1.086,1.086,0,0,1,1.475.944,1.152,1.152,0,0,1-1.167,1.2,1.062,1.062,0,0,1-1.072-1.1A1.141,1.141,0,0,1,555.821,199.218Z" transform="translate(-462.763 -177.801)" fill="#618d46"/>
        <path id="ro_168" data-name="ro 168" d="M189.491,201.32a1.085,1.085,0,1,1-.2,1.892A1.087,1.087,0,0,1,189.491,201.32Z" transform="translate(-167.658 -179.484)" fill="#618d46"/>
        <path id="ro_169" data-name="ro 169" d="M501.412,201.327a1.085,1.085,0,1,1-.2,1.892A1.088,1.088,0,0,1,501.412,201.327Z" transform="translate(-419.014 -179.489)" fill="#618d46"/>
        <path id="ro_170" data-name="ro 170" d="M247.479,206.16a1.082,1.082,0,0,1,1.054-.918q14.9-.01,29.8-.006a1.864,1.864,0,0,1,1.23.231,1.471,1.471,0,0,1,.454,1.234q0,19.468,0,38.932a3.568,3.568,0,0,1-.184,1.625,1.113,1.113,0,0,1-1.066.756q-20.665,0-41.33,0a1.222,1.222,0,0,1-1.205-1.289q-.006-19.795,0-39.591a1.089,1.089,0,1,1,2.172,0q-.009,19.352,0,38.705,19.724,0,39.449,0,0-19.217,0-38.435-14.659-.007-29.317,0a1.086,1.086,0,0,1-1.053-1.245Z" transform="translate(-205.844 -182.71)" fill="#618d46"/>
        <path id="ro_171" data-name="ro 171" d="M255.1,205.9a2.105,2.105,0,0,1,.84-.1c1.269.011,2.539-.008,3.809.006a1.082,1.082,0,0,1-.014,2.163c-1.373.008-2.748,0-4.121,0a1.087,1.087,0,0,1-.513-2.075Z" transform="translate(-220.534 -183.168)" fill="#618d46"/>
        <path id="ro_172" data-name="ro 172" d="M105.469,333.491a1.086,1.086,0,0,1,1.5.953,1.079,1.079,0,1,1-1.5-.953Z" transform="translate(-99.947 -285.992)" fill="#618d46"/>
        <path id="ro_173" data-name="ro 173" d="M585.405,333.486a1.085,1.085,0,1,1-.195,1.892A1.1,1.1,0,0,1,585.405,333.486Z" transform="translate(-486.698 -285.985)" fill="#618d46"/>
      </g>
      <text id="_80_" data-name="80%" transform="translate(193.979 613.585)" fill="#618d46" font-size="14" font-family="Poppins-Bold, Poppins" font-weight="700"><tspan x="0" y="0">80%</tspan></text>
    </g>
    <text id="high_engagement_" data-name="high engagement
               " transform="translate(31 521)" fill="#618d46" font-size="12" font-family="Poppins-Bold, Poppins" font-weight="700"><tspan x="0" y="0">high engagement</tspan><tspan x="0" y="18" xml:space="preserve">               </tspan></text>
  </g>
</svg>
