<svg xmlns="http://www.w3.org/2000/svg" width="50.804" height="43.547" viewBox="0 0 50.804 43.547">
  <g transform="translate(64.536 17.632)">
    <path d="M19.721,38.319h9.657V26.164q0-.585-.346-.939t-.93-.354h-7.07q-.585,0-.948.354t-.363.939ZM13.148,40.3h22.68q1.861,0,2.9-1.019t1.037-2.826V17.907l-3.048-2.073V35.591q0,.815-.416,1.24t-1.214.425H13.892q-.78,0-1.2-.425t-.425-1.24V15.834l-3.03,2.073V36.459q0,1.807,1.028,2.826T13.148,40.3ZM4.27,21.486q0,.585.434,1.037t1.178.452q.372,0,.7-.168t.594-.416L23.9,8.374q.3-.266.656-.275t.673.275L41.906,22.39q.3.248.62.416t.709.168q.656,0,1.116-.39t.461-1.063q0-.78-.585-1.276L26.774,5.592q-1.01-.868-2.206-.868t-2.224.868L4.89,20.246Q4.27,20.76,4.27,21.486Zm30.955-7.9,4.536,3.827V9.455q0-.567-.337-.895t-.886-.328H36.466q-.549,0-.895.328t-.346.895Z" transform="translate(-64.536 -17.632)" fill="#2d5215"/>
  </g>
</svg>
