<svg xmlns="http://www.w3.org/2000/svg" width="345" height="135.792" viewBox="0 0 345 135.792">
  <path id="s'q_47" data-name="sq 47" d="M2,0H113a2,2,0,0,1,2,2V74a0,0,0,0,1,0,0H0a0,0,0,0,1,0,0V2A2,2,0,0,1,2,0Z" transform="translate(115 54.792)" fill="#7bba55"/>
  <path id="sq_48" data-name="sq 48" d="M2,0H115a0,0,0,0,1,0,0V50a0,0,0,0,1,0,0H0a0,0,0,0,1,0,0V2A2,2,0,0,1,2,0Z" transform="translate(0 78.792)" fill="#85c75d"/>
  <path id="sq_49" data-name="sq 49" d="M0,0H113a2,2,0,0,1,2,2V34a0,0,0,0,1,0,0H0a0,0,0,0,1,0,0V0A0,0,0,0,1,0,0Z" transform="translate(230 94.792)" fill="#8fd664"/>
  <g id="group_72" data-name="group 72" transform="translate(-17.962 -98.827)">
    <path id="route_150" data-name="route 150" d="M198.762,55a11.347,11.347,0,0,0,5.642-8.348,1.924,1.924,0,0,0-.823-1.79,2.665,2.665,0,0,0-2.155-.4,25,25,0,0,0-6.583,2.482c.085-.28.165-.557.239-.831,5.707-2.749,4.738-8.443,3.956-13.037-.2-1.152-.382-2.241-.45-3.2a2.089,2.089,0,0,0-1.419-1.71,2.572,2.572,0,0,0-2.313.226c-6.556,4.38-8.377,11.647-4.379,17.1-.04.15-.084.3-.13.453a23.358,23.358,0,0,0-5.3-6.692,2.479,2.479,0,0,0-1.944-.569,2.426,2.426,0,0,0-1.8,1.068c-1.53,2.5-1.711,5.8-.521,9.563q.086.272.186.528-.322-.27-.662-.528a2.727,2.727,0,0,0-1.875-.492,2.26,2.26,0,0,0-1.544.762,8.947,8.947,0,0,0-1.9,7.018,17.381,17.381,0,0,0-1.94-1.9,2.485,2.485,0,0,0-1.834-.544,2.585,2.585,0,0,0-1.808.979c-3.631,4.854-2.722,11.011,1.968,14.97-1.007.607-2.088,1.225-3.273,1.871a14.178,14.178,0,0,0-1.922-10.357,2.236,2.236,0,0,0-1.709-.993,2.652,2.652,0,0,0-2.076.641,12.685,12.685,0,0,0-4.094,8.551,9.634,9.634,0,0,0,1.533,5.969,20.247,20.247,0,0,1-6.513,1.069,2.253,2.253,0,0,0-1.962.914,1.826,1.826,0,0,0,0,2.058,2.433,2.433,0,0,0,2.038,1.022,25.861,25.861,0,0,0,8.985-1.623,23.53,23.53,0,0,0,9.528,4.9l.214.06a28.849,28.849,0,0,0,7.358,1.375,4.909,4.909,0,0,0,2.637-.591,2.157,2.157,0,0,0,1.076-1.94,3.654,3.654,0,0,0-1.259-2.274l-.2-.217a22.293,22.293,0,0,0-2.207-2.124,24.271,24.271,0,0,0-5.146-3.276q-.942-.449-1.854-.79.931-.534,1.808-1.072a16.667,16.667,0,0,0,18.284,1.569,1.951,1.951,0,0,0,1.05-1.43,1.884,1.884,0,0,0-.681-1.675c-2.3-2.014-5.939-2.587-8.345-2.968q-1.722-.272-3.511-.388.687-.589,1.327-1.186a12.532,12.532,0,0,0,7.752,1.55c4.134-.39,7.926-2.31,9.9-5.011a1.634,1.634,0,0,0,.157-1.722,2.389,2.389,0,0,0-1.676-1.228,30.048,30.048,0,0,0-10.568-.233c.726-1.1,1.447-2.286,2.184-3.6,2.937.539,6.333-.638,8.566-1.975Zm-3.073-23.805c.095.723.222,1.475.356,2.257.867,5.1,1.181,8.837-2.713,10.543l-.07.033a.7.7,0,0,0-.071.029c-.031.011-.084.031-.113.043a.4.4,0,0,0-.04.019c-3.31-4.508-1.237-9.756,2.651-12.923Zm-22.8,46.216a21.2,21.2,0,0,1,4.5,2.866,19.527,19.527,0,0,1,1.932,1.858l.244.262a6.033,6.033,0,0,1,.5.579c-.575.093-2.337.121-6.993-1.212l-.229-.065a19.53,19.53,0,0,1-8.906-4.834,1.458,1.458,0,0,0-.354-.267,1.163,1.163,0,0,0-.389-1.248c-1.858-1.586-1.935-4.313-1.883-5.412a10.128,10.128,0,0,1,2.658-6.251,11.778,11.778,0,0,1,.2,10.642,1.144,1.144,0,0,0,.255,1.328,1.684,1.684,0,0,0,1.5.411c.028-.006.1-.025.13-.032a1.724,1.724,0,0,0,.329-.123l.571-.29c.221-.114.439-.226.653-.339a1.492,1.492,0,0,0,1.105.744,15.585,15.585,0,0,1,4.167,1.383Zm11.19-6.081c1.9.3,4.415.7,6.1,1.766a13.166,13.166,0,0,1-14.532-2.353,1.483,1.483,0,0,0-.371-.266,1.1,1.1,0,0,0,.034-.271,1.238,1.238,0,0,0-.6-1.031c-4.492-2.877-5.775-7.959-3.155-12.062,3.343,3.135,4.669,7.256,3.466,10.925a1.206,1.206,0,0,0,.643,1.433,1.684,1.684,0,0,0,.189.088,1.121,1.121,0,0,0,.1.532,1.492,1.492,0,0,0,1.458.82,36.493,36.493,0,0,1,6.67.417Zm-5.662-7.24c.172.171.35.335.532.49q-.234.222-.472.436c-.007-.308-.028-.617-.061-.926Zm18.475-.951a11.65,11.65,0,0,1-7.027,3.068,8.562,8.562,0,0,1-6.493-1.7,1.61,1.61,0,0,0-.8-.363,1.3,1.3,0,0,0-.628-.786,8.606,8.606,0,0,1-3.548-5.1c-.778-2.609-.614-4.8.487-6.538,2.793,2.361,4.319,5.488,4.11,8.49a1.276,1.276,0,0,0,.856,1.238c-.119.158-.24.313-.36.466a1.138,1.138,0,0,0,.06,1.5,1.677,1.677,0,0,0,1.694.43,26.312,26.312,0,0,1,11.645-.714Zm-12.279-8.879a15.7,15.7,0,0,0,1.418.86c-.2.353-.393.7-.589,1.031a12.5,12.5,0,0,0-.829-1.892Zm4.85-.142-.07,0a1.374,1.374,0,0,0-.674-.644c-2.907-1.356-4.361-2.754-5.015-4.824-.617-1.952-1.092-4.648-.116-6.928,2.207,2.143,4.627,5.237,5.1,8.807a1.41,1.41,0,0,0,1.3,1.132,1.811,1.811,0,0,0,.492-.012,1.453,1.453,0,0,0,.4.312,1.712,1.712,0,0,0,1.918-.209,19.034,19.034,0,0,1,1.753-1.419,20.856,20.856,0,0,1,6.7-3.139,8.914,8.914,0,0,1-4.237,5.7c-2.069,1.24-5.1,2.1-6.889,1.359a1.7,1.7,0,0,0-.665-.133Z" transform="translate(38.092 70.829)" fill="#ead26f"/>
    <path id="route_151" data-name="route 151" d="M155.935,55a11.527,11.527,0,0,1-4.889-8.348,2.032,2.032,0,0,1,2.58-2.186,19.975,19.975,0,0,1,5.7,2.482c-.074-.28-.143-.557-.207-.831-4.945-2.749-4.106-8.443-3.428-13.037.17-1.152.331-2.241.39-3.2a2.047,2.047,0,0,1,1.23-1.71,1.974,1.974,0,0,1,2,.226c5.681,4.38,7.258,11.647,3.794,17.1.035.15.073.3.113.453a23.12,23.12,0,0,1,4.592-6.692,1.958,1.958,0,0,1,1.684-.569,2.078,2.078,0,0,1,1.56,1.068c1.326,2.5,1.482,5.8.452,9.563q-.074.272-.161.528.279-.27.574-.528a2.133,2.133,0,0,1,1.624-.492,1.879,1.879,0,0,1,1.338.762,9.957,9.957,0,0,1,1.649,7.018,16.351,16.351,0,0,1,1.681-1.9,1.961,1.961,0,0,1,1.589-.544,2.178,2.178,0,0,1,1.567.979,11.776,11.776,0,0,1-1.706,14.97c.873.607,1.809,1.225,2.836,1.871a16.026,16.026,0,0,1,1.665-10.357,1.91,1.91,0,0,1,1.481-.993,2.1,2.1,0,0,1,1.8.641A13.552,13.552,0,0,1,191,69.832a10.787,10.787,0,0,1-1.329,5.969,15.427,15.427,0,0,0,5.643,1.069,1.869,1.869,0,0,1,1.7.914,2.062,2.062,0,0,1,0,2.058,2.035,2.035,0,0,1-1.766,1.022,19.762,19.762,0,0,1-7.786-1.623,19.615,19.615,0,0,1-8.256,4.9l-.186.06a22.026,22.026,0,0,1-6.375,1.375,3.8,3.8,0,0,1-2.285-.591,2.25,2.25,0,0,1-.933-1.94,3.826,3.826,0,0,1,1.091-2.274l.176-.217a20.616,20.616,0,0,1,6.371-5.4q.816-.449,1.607-.79-.806-.534-1.567-1.072a12.9,12.9,0,0,1-15.843,1.569,1.955,1.955,0,0,1-.91-1.43,2.037,2.037,0,0,1,.59-1.675c2-2.014,5.146-2.587,7.231-2.968a29,29,0,0,1,3.042-.388q-.6-.589-1.15-1.186a9.671,9.671,0,0,1-6.717,1.55,11.716,11.716,0,0,1-8.574-5.011,1.845,1.845,0,0,1-.136-1.722,2.124,2.124,0,0,1,1.452-1.228,22.624,22.624,0,0,1,9.157-.233c-.629-1.1-1.254-2.286-1.892-3.6-2.545.539-5.488-.638-7.422-1.975ZM158.6,31.194c-.082.723-.193,1.475-.309,2.257-.751,5.1-1.023,8.837,2.351,10.543l.06.033a.568.568,0,0,1,.061.029c.027.011.073.031.1.043a.326.326,0,0,1,.035.019c2.868-4.508,1.072-9.756-2.3-12.923ZM178.35,77.41a18.034,18.034,0,0,0-5.575,4.724l-.212.262a5.875,5.875,0,0,0-.437.579c.5.093,2.025.121,6.059-1.212l.2-.065a16.436,16.436,0,0,0,7.717-4.834,1.3,1.3,0,0,1,.307-.267,1.275,1.275,0,0,1,.337-1.248c1.61-1.586,1.677-4.313,1.632-5.412a10.969,10.969,0,0,0-2.3-6.251,13.409,13.409,0,0,0-.171,10.642,1.274,1.274,0,0,1-.221,1.328,1.329,1.329,0,0,1-1.3.411c-.024-.006-.09-.025-.113-.032a1.375,1.375,0,0,1-.285-.123l-.495-.29c-.191-.114-.38-.226-.566-.339a1.307,1.307,0,0,1-.958.744,12.287,12.287,0,0,0-3.61,1.383Zm-9.7-6.081a13.313,13.313,0,0,0-5.286,1.767,10.277,10.277,0,0,0,12.592-2.353,1.307,1.307,0,0,1,.322-.266,1.264,1.264,0,0,1-.03-.271,1.284,1.284,0,0,1,.524-1.031,9.3,9.3,0,0,0,2.734-12.062,11.586,11.586,0,0,0-3,10.925,1.279,1.279,0,0,1-.557,1.433,1.378,1.378,0,0,1-.164.088,1.295,1.295,0,0,1-1.352,1.353,27.471,27.471,0,0,0-5.779.417Zm4.906-7.24c-.149.171-.3.335-.461.49q.2.222.409.436c.006-.308.025-.617.053-.926Zm-16.008-.951a9.52,9.52,0,0,0,6.088,3.068,6.719,6.719,0,0,0,5.626-1.7,1.319,1.319,0,0,1,.691-.363,1.286,1.286,0,0,1,.544-.786c1.755-1.169,2.64-3.419,3.075-5.1a8.764,8.764,0,0,0-.422-6.538,11.162,11.162,0,0,0-3.561,8.49,1.286,1.286,0,0,1-.742,1.238c.1.158.208.313.312.466a1.272,1.272,0,0,1-.052,1.5,1.324,1.324,0,0,1-1.468.43,19.873,19.873,0,0,0-10.09-.714Zm10.639-8.879a13.4,13.4,0,0,1-1.228.86c.171.353.341.7.51,1.031a13.565,13.565,0,0,1,.718-1.892Zm-4.2-.142.06,0a1.287,1.287,0,0,1,.584-.644c2.519-1.356,3.778-2.754,4.345-4.824a11.805,11.805,0,0,0,.1-6.928,16.677,16.677,0,0,0-4.422,8.807,1.3,1.3,0,0,1-1.127,1.132,1.362,1.362,0,0,1-.426-.012,1.305,1.305,0,0,1-.344.312,1.329,1.329,0,0,1-1.662-.209,17.05,17.05,0,0,0-7.327-4.558,8.917,8.917,0,0,0,3.672,5.7c1.793,1.24,4.42,2.1,5.969,1.359a1.308,1.308,0,0,1,.576-.133Z" transform="translate(-12.62 70.829)" fill="#ead26f"/>
  </g>
  <g id="rgroup_72-2" data-name="rgroup 72" transform="translate(110.038 -53.034)">
    <path id="route_150-2" data-name="route 150" d="M198.762,51.367c3.188-1.652,5.244-4.286,5.642-7.225a1.588,1.588,0,0,0-.823-1.549,3.008,3.008,0,0,0-2.155-.342,27.515,27.515,0,0,0-6.583,2.148c.085-.243.165-.482.239-.719,5.707-2.379,4.738-7.307,3.956-11.283a26.543,26.543,0,0,1-.45-2.768,1.892,1.892,0,0,0-1.419-1.48,2.921,2.921,0,0,0-2.313.2c-6.556,3.791-8.377,10.08-4.379,14.8-.04.129-.084.26-.13.392a21.026,21.026,0,0,0-5.3-5.792,2.75,2.75,0,0,0-1.944-.492,2.508,2.508,0,0,0-1.8.925c-1.53,2.161-1.711,5.023-.521,8.277q.086.235.186.457-.322-.234-.662-.457a3.05,3.05,0,0,0-1.875-.426,2.4,2.4,0,0,0-1.544.659,7.02,7.02,0,0,0-1.9,6.074,16.5,16.5,0,0,0-1.94-1.641,2.759,2.759,0,0,0-1.834-.471,2.715,2.715,0,0,0-1.808.847c-3.631,4.2-2.722,9.53,1.968,12.956-1.007.525-2.088,1.06-3.273,1.619a10.912,10.912,0,0,0-1.922-8.964,2.318,2.318,0,0,0-1.709-.859,2.933,2.933,0,0,0-2.076.555,10.46,10.46,0,0,0-4.094,7.4,7.5,7.5,0,0,0,1.533,5.166,23.131,23.131,0,0,1-6.513.925,2.4,2.4,0,0,0-1.962.791,1.408,1.408,0,0,0,0,1.782,2.569,2.569,0,0,0,2.038.885,29.479,29.479,0,0,0,8.985-1.4,24.973,24.973,0,0,0,9.528,4.245l.214.052a32.909,32.909,0,0,0,7.358,1.19,5.535,5.535,0,0,0,2.637-.512,1.826,1.826,0,0,0,1.076-1.679,3.085,3.085,0,0,0-1.259-1.968l-.2-.188a21.239,21.239,0,0,0-2.207-1.838,25.035,25.035,0,0,0-5.146-2.835q-.942-.389-1.854-.683.931-.462,1.808-.927a18.808,18.808,0,0,0,18.284,1.358,1.727,1.727,0,0,0,1.05-1.238,1.53,1.53,0,0,0-.681-1.45c-2.3-1.743-5.939-2.239-8.345-2.569q-1.722-.235-3.511-.336.687-.51,1.327-1.027a14.174,14.174,0,0,0,7.752,1.341c4.134-.338,7.926-2,9.9-4.337a1.26,1.26,0,0,0,.157-1.49,2.388,2.388,0,0,0-1.676-1.063,34.645,34.645,0,0,0-10.568-.2c.726-.95,1.447-1.978,2.184-3.116a15.007,15.007,0,0,0,8.566-1.71Zm-3.073-20.6c.095.625.222,1.277.356,1.953.867,4.412,1.181,7.648-2.713,9.125l-.07.028c-.018.005-.038.012-.071.025l-.113.037a.429.429,0,0,0-.04.016c-3.31-3.9-1.237-8.444,2.651-11.185Zm-22.8,40a21.869,21.869,0,0,1,4.5,2.48,18.605,18.605,0,0,1,1.932,1.608l.244.226a5.535,5.535,0,0,1,.5.5c-.575.081-2.337.1-6.993-1.049l-.229-.056a20.553,20.553,0,0,1-8.906-4.184,1.458,1.458,0,0,0-.354-.231.929.929,0,0,0-.389-1.08,5.437,5.437,0,0,1-1.883-4.684,8.218,8.218,0,0,1,2.658-5.41,8.983,8.983,0,0,1,.2,9.211.9.9,0,0,0,.255,1.149,1.869,1.869,0,0,0,1.5.356l.13-.028a1.9,1.9,0,0,0,.329-.106l.571-.251q.331-.148.653-.294a1.512,1.512,0,0,0,1.105.644,17.332,17.332,0,0,1,4.167,1.2Zm11.19-5.263a19.072,19.072,0,0,1,6.1,1.529c-4.849,1.934-10.831,1.128-14.532-2.036a1.5,1.5,0,0,0-.371-.23.834.834,0,0,0,.034-.235,1.055,1.055,0,0,0-.6-.893c-4.492-2.49-5.775-6.889-3.155-10.439,3.343,2.713,4.669,6.28,3.466,9.455a1,1,0,0,0,.643,1.24,1.816,1.816,0,0,0,.189.076.858.858,0,0,0,.1.461,1.546,1.546,0,0,0,1.458.71,42.08,42.08,0,0,1,6.67.361Zm-5.662-6.266c.172.148.35.29.532.424q-.234.192-.472.377c-.007-.267-.028-.534-.061-.8Zm18.475-.823a12.569,12.569,0,0,1-7.027,2.655,9.551,9.551,0,0,1-6.493-1.467,1.734,1.734,0,0,0-.8-.314,1.172,1.172,0,0,0-.628-.68A7.528,7.528,0,0,1,178.4,54.19c-.778-2.258-.614-4.158.487-5.658,2.793,2.043,4.319,4.75,4.11,7.348a1.12,1.12,0,0,0,.856,1.072c-.119.137-.24.271-.36.4a.889.889,0,0,0,.06,1.3,1.86,1.86,0,0,0,1.694.372,30.265,30.265,0,0,1,11.645-.618Zm-12.279-7.685c.466.277.944.523,1.418.745-.2.305-.393.6-.589.893a10.133,10.133,0,0,0-.829-1.637Zm4.85-.123-.07,0a1.306,1.306,0,0,0-.674-.558c-2.907-1.174-4.361-2.383-5.015-4.175-.617-1.69-1.092-4.023-.116-6,2.207,1.854,4.627,4.532,5.1,7.623a1.356,1.356,0,0,0,1.3.98,2.089,2.089,0,0,0,.492-.01,1.441,1.441,0,0,0,.4.27,1.927,1.927,0,0,0,1.918-.181,18.8,18.8,0,0,1,1.753-1.228,22.445,22.445,0,0,1,6.7-2.717,7.914,7.914,0,0,1-4.237,4.93c-2.069,1.073-5.1,1.82-6.889,1.176a1.936,1.936,0,0,0-.665-.115Z" transform="translate(24.088 70.829)" fill="#af9d54"/>
    <path id="route_151-2" data-name="route 151" d="M155.935,51.367a9.82,9.82,0,0,1-4.889-7.225,1.665,1.665,0,0,1,.713-1.549,2.312,2.312,0,0,1,1.867-.342,21.682,21.682,0,0,1,5.7,2.148c-.074-.243-.143-.482-.207-.719-4.945-2.379-4.106-7.307-3.428-11.283.17-1,.331-1.94.39-2.768a1.809,1.809,0,0,1,1.23-1.48,2.23,2.23,0,0,1,2,.2c5.681,3.791,7.258,10.08,3.794,14.8.035.129.073.26.113.392a20.22,20.22,0,0,1,4.592-5.792,2.149,2.149,0,0,1,1.684-.492,2.1,2.1,0,0,1,1.56.925c1.326,2.161,1.482,5.023.452,8.277q-.074.235-.161.457.279-.234.574-.457a2.365,2.365,0,0,1,1.624-.426,1.959,1.959,0,0,1,1.338.659,7.737,7.737,0,0,1,1.649,6.074,15.053,15.053,0,0,1,1.681-1.641,2.155,2.155,0,0,1,1.589-.471,2.241,2.241,0,0,1,1.567.847c3.146,4.2,2.359,9.53-1.706,12.956.873.525,1.809,1.06,2.836,1.619a12.259,12.259,0,0,1,1.665-8.964,1.938,1.938,0,0,1,1.481-.859,2.3,2.3,0,0,1,1.8.555A10.974,10.974,0,0,1,191,64.2a8.331,8.331,0,0,1-1.329,5.166,17.562,17.562,0,0,0,5.643.925,1.953,1.953,0,0,1,1.7.791,1.579,1.579,0,0,1,0,1.781,2.109,2.109,0,0,1-1.766.885,22.432,22.432,0,0,1-7.786-1.4,20.4,20.4,0,0,1-8.256,4.245l-.186.052a25.024,25.024,0,0,1-6.375,1.19,4.258,4.258,0,0,1-2.285-.512,1.867,1.867,0,0,1-.933-1.679,3.162,3.162,0,0,1,1.091-1.968l.176-.188a19.309,19.309,0,0,1,1.913-1.838,21.034,21.034,0,0,1,4.459-2.835q.816-.389,1.607-.683-.806-.462-1.567-.927a14.455,14.455,0,0,1-15.843,1.358,1.689,1.689,0,0,1-.91-1.238,1.63,1.63,0,0,1,.59-1.45c2-1.743,5.146-2.239,7.231-2.569q1.492-.235,3.042-.336-.6-.51-1.15-1.027a10.87,10.87,0,0,1-6.717,1.341c-3.582-.338-6.868-2-8.574-4.337a1.413,1.413,0,0,1-.136-1.49,2.07,2.07,0,0,1,1.452-1.063,26.066,26.066,0,0,1,9.157-.2c-.629-.95-1.254-1.978-1.892-3.116a11.562,11.562,0,0,1-7.422-1.71Zm2.663-20.6c-.082.625-.193,1.277-.309,1.953-.751,4.412-1.023,7.648,2.351,9.125l.06.028a.612.612,0,0,1,.061.025l.1.037a.346.346,0,0,1,.035.016c2.868-3.9,1.072-8.444-2.3-11.185Zm19.752,40a18.373,18.373,0,0,0-3.9,2.48,16.911,16.911,0,0,0-1.674,1.608l-.212.226a5.229,5.229,0,0,0-.437.5c.5.081,2.025.1,6.059-1.049l.2-.056A16.928,16.928,0,0,0,186.1,70.29a1.263,1.263,0,0,1,.307-.231,1.006,1.006,0,0,1,.337-1.08c1.61-1.373,1.677-3.733,1.632-4.684a8.76,8.76,0,0,0-2.3-5.41A10.183,10.183,0,0,0,185.9,68.1a.99.99,0,0,1-.221,1.149,1.46,1.46,0,0,1-1.3.356l-.113-.028a1.5,1.5,0,0,1-.285-.106l-.495-.251c-.191-.1-.38-.2-.566-.294a1.293,1.293,0,0,1-.958.644,13.514,13.514,0,0,0-3.61,1.2Zm-9.7-5.263a14.771,14.771,0,0,0-5.286,1.529,11.419,11.419,0,0,0,12.592-2.036,1.285,1.285,0,0,1,.322-.23.953.953,0,0,1-.03-.235,1.071,1.071,0,0,1,.524-.893c3.892-2.49,5-6.889,2.734-10.439-2.9,2.713-4.046,6.28-3,9.455a1.044,1.044,0,0,1-.557,1.24,1.459,1.459,0,0,1-.164.076.969.969,0,0,1-.088.461,1.293,1.293,0,0,1-1.264.71,31.657,31.657,0,0,0-5.779.361Zm4.906-6.266c-.149.148-.3.29-.461.424q.2.192.409.377c.006-.267.025-.534.053-.8Zm-16.008-.823a10.1,10.1,0,0,0,6.088,2.655,7.425,7.425,0,0,0,5.626-1.467,1.4,1.4,0,0,1,.691-.314,1.127,1.127,0,0,1,.544-.68,7.448,7.448,0,0,0,3.075-4.415,6.662,6.662,0,0,0-.422-5.658,9.064,9.064,0,0,0-3.561,7.348,1.1,1.1,0,0,1-.742,1.072c.1.137.208.271.312.4a.984.984,0,0,1-.052,1.3,1.454,1.454,0,0,1-1.468.372,22.825,22.825,0,0,0-10.09-.618Zm10.639-7.685a13.6,13.6,0,0,1-1.228.745c.171.305.341.6.51.893a10.813,10.813,0,0,1,.718-1.637Zm-4.2-.123.06,0a1.189,1.189,0,0,1,.584-.558c2.519-1.174,3.778-2.383,4.345-4.175a8.909,8.909,0,0,0,.1-6c-1.913,1.854-4.01,4.532-4.422,7.623a1.221,1.221,0,0,1-1.127.98,1.571,1.571,0,0,1-.426-.01,1.259,1.259,0,0,1-.344.27,1.485,1.485,0,0,1-1.662-.181,16.486,16.486,0,0,0-1.519-1.228,18.081,18.081,0,0,0-5.807-2.717,7.716,7.716,0,0,0,3.672,4.93c1.793,1.073,4.42,1.82,5.969,1.176a1.478,1.478,0,0,1,.576-.115Z" transform="translate(-12.62 70.829)" fill="#af9d54"/>
  </g>
  <g id="group_73" data-name="group 73" transform="translate(-124.365 -70.034)">
    <path id="route_150-3" data-name="route 150" d="M198.762,52.663a10.387,10.387,0,0,0,5.642-7.626,1.7,1.7,0,0,0-.823-1.635,2.873,2.873,0,0,0-2.155-.361,26.51,26.51,0,0,0-6.583,2.268c.085-.256.165-.508.239-.759,5.707-2.511,4.738-7.713,3.956-11.909a29.454,29.454,0,0,1-.45-2.922,1.958,1.958,0,0,0-1.419-1.562,2.783,2.783,0,0,0-2.313.206c-6.556,4-8.377,10.64-4.379,15.621-.04.137-.084.275-.13.414a21.792,21.792,0,0,0-5.3-6.114,2.642,2.642,0,0,0-1.944-.519,2.471,2.471,0,0,0-1.8.976c-1.53,2.281-1.711,5.3-.521,8.736q.086.248.186.483-.322-.247-.662-.483a2.922,2.922,0,0,0-1.875-.449,2.342,2.342,0,0,0-1.544.7,7.677,7.677,0,0,0-1.9,6.411,16.764,16.764,0,0,0-1.94-1.732,2.766,2.766,0,0,0-3.642.4c-3.631,4.434-2.722,10.059,1.968,13.675-1.007.554-2.088,1.119-3.273,1.709a12.024,12.024,0,0,0-1.922-9.461,2.281,2.281,0,0,0-1.709-.907,2.821,2.821,0,0,0-2.076.585,11.216,11.216,0,0,0-4.094,7.812,8.23,8.23,0,0,0,1.533,5.453,22,22,0,0,1-6.513.977,2.338,2.338,0,0,0-1.962.835,1.55,1.55,0,0,0,0,1.88,2.512,2.512,0,0,0,2.038.934,28.058,28.058,0,0,0,8.985-1.482,24.369,24.369,0,0,0,9.528,4.48l.214.055a31.315,31.315,0,0,0,7.358,1.256,5.289,5.289,0,0,0,2.637-.54,1.939,1.939,0,0,0,1.076-1.772,3.278,3.278,0,0,0-1.259-2.078l-.2-.2a21.549,21.549,0,0,0-2.207-1.94,24.678,24.678,0,0,0-5.146-2.993q-.942-.41-1.854-.721.931-.487,1.808-.979a17.964,17.964,0,0,0,18.284,1.433,1.8,1.8,0,0,0,1.05-1.306,1.651,1.651,0,0,0-.681-1.53c-2.3-1.84-5.939-2.364-8.345-2.711q-1.722-.248-3.511-.355.687-.538,1.327-1.084a13.528,13.528,0,0,0,7.752,1.415c4.134-.356,7.926-2.11,9.9-4.578a1.387,1.387,0,0,0,.157-1.573,2.382,2.382,0,0,0-1.676-1.122,32.847,32.847,0,0,0-10.568-.213c.726-1,1.447-2.088,2.184-3.289a14.346,14.346,0,0,0,8.566-1.8Zm-3.073-21.746c.095.66.222,1.348.356,2.061.867,4.656,1.181,8.073-2.713,9.631l-.07.03a.743.743,0,0,0-.071.027c-.031.01-.084.029-.113.04a.416.416,0,0,0-.04.017c-3.31-4.118-1.237-8.912,2.651-11.806Zm-22.8,42.219a21.557,21.557,0,0,1,4.5,2.618,18.877,18.877,0,0,1,1.932,1.7l.244.239a5.694,5.694,0,0,1,.5.529c-.575.085-2.337.11-6.993-1.107l-.229-.059a20.117,20.117,0,0,1-8.906-4.416,1.454,1.454,0,0,0-.354-.244,1.009,1.009,0,0,0-.389-1.14c-1.858-1.449-1.935-3.94-1.883-4.944a8.868,8.868,0,0,1,2.658-5.71,9.935,9.935,0,0,1,.2,9.722.982.982,0,0,0,.255,1.213,1.8,1.8,0,0,0,1.5.376l.13-.029a1.829,1.829,0,0,0,.329-.112l.571-.265q.331-.156.653-.31a1.5,1.5,0,0,0,1.105.679,16.638,16.638,0,0,1,4.167,1.263Zm11.19-5.555a18.265,18.265,0,0,1,6.1,1.614,14.126,14.126,0,0,1-14.532-2.149,1.488,1.488,0,0,0-.371-.243.926.926,0,0,0,.034-.248,1.117,1.117,0,0,0-.6-.942c-4.492-2.629-5.775-7.271-3.155-11.019,3.343,2.864,4.669,6.628,3.466,9.98a1.071,1.071,0,0,0,.643,1.309,1.761,1.761,0,0,0,.189.081.948.948,0,0,0,.1.486,1.522,1.522,0,0,0,1.458.749,39.894,39.894,0,0,1,6.67.381Zm-5.662-6.613c.172.157.35.306.532.448q-.234.2-.472.4c-.007-.281-.028-.563-.061-.846ZM196.9,60.1a12.2,12.2,0,0,1-7.027,2.8,9.159,9.159,0,0,1-6.493-1.548,1.684,1.684,0,0,0-.8-.332,1.215,1.215,0,0,0-.628-.718,7.89,7.89,0,0,1-3.548-4.66c-.778-2.383-.614-4.389.487-5.972,2.793,2.157,4.319,5.014,4.11,7.755a1.173,1.173,0,0,0,.856,1.131c-.119.144-.24.286-.36.426a.974.974,0,0,0,.06,1.375,1.788,1.788,0,0,0,1.694.393A28.718,28.718,0,0,1,196.9,60.1Zm-12.279-8.111a16.046,16.046,0,0,0,1.418.786c-.2.322-.393.635-.589.942a10.937,10.937,0,0,0-.829-1.728Zm4.85-.13-.07,0a1.326,1.326,0,0,0-.674-.589c-2.907-1.239-4.361-2.516-5.015-4.406-.617-1.783-1.092-4.246-.116-6.329,2.207,1.957,4.627,4.784,5.1,8.046a1.372,1.372,0,0,0,1.3,1.034,1.98,1.98,0,0,0,.492-.011,1.441,1.441,0,0,0,.4.285A1.842,1.842,0,0,0,192.8,49.7a18.822,18.822,0,0,1,1.753-1.3,21.8,21.8,0,0,1,6.7-2.867,8.248,8.248,0,0,1-4.237,5.2c-2.069,1.133-5.1,1.921-6.889,1.242a1.845,1.845,0,0,0-.665-.121Z" transform="translate(29.088 70.829)" fill="#bababa"/>
    <path id="route_151-3" data-name="route 151" d="M155.935,52.663a10.4,10.4,0,0,1-4.889-7.626,1.8,1.8,0,0,1,.713-1.635,2.213,2.213,0,0,1,1.867-.361,20.99,20.99,0,0,1,5.7,2.268c-.074-.256-.143-.508-.207-.759-4.945-2.511-4.106-7.713-3.428-11.909.17-1.053.331-2.047.39-2.922a1.889,1.889,0,0,1,1.23-1.562,2.129,2.129,0,0,1,2,.206c5.681,4,7.258,10.64,3.794,15.621.035.137.073.275.113.414a21.189,21.189,0,0,1,4.592-6.114,2.165,2.165,0,0,1,3.244.457c1.326,2.281,1.482,5.3.452,8.736q-.074.248-.161.483.279-.247.574-.483a2.273,2.273,0,0,1,1.624-.449,1.924,1.924,0,0,1,1.338.7,8.493,8.493,0,0,1,1.649,6.411,15.469,15.469,0,0,1,1.681-1.732,2.077,2.077,0,0,1,1.589-.5,2.212,2.212,0,0,1,1.567.894,10.084,10.084,0,0,1-1.706,13.675c.873.554,1.809,1.119,2.836,1.709a13.542,13.542,0,0,1,1.665-9.461,1.922,1.922,0,0,1,1.481-.907,2.221,2.221,0,0,1,1.8.585A11.851,11.851,0,0,1,191,66.213a9.167,9.167,0,0,1-1.329,5.453,16.724,16.724,0,0,0,5.643.977,1.917,1.917,0,0,1,1.7.835,1.743,1.743,0,0,1,0,1.88,2.076,2.076,0,0,1-1.766.934,21.382,21.382,0,0,1-7.786-1.482,20.049,20.049,0,0,1-8.256,4.48l-.186.055a23.846,23.846,0,0,1-6.375,1.256,4.078,4.078,0,0,1-2.285-.54,2,2,0,0,1-.933-1.772,3.387,3.387,0,0,1,1.091-2.078l.176-.2a19.816,19.816,0,0,1,1.913-1.94,20.923,20.923,0,0,1,4.459-2.993q.816-.41,1.607-.721-.806-.487-1.567-.979a13.84,13.84,0,0,1-15.843,1.433,1.723,1.723,0,0,1-.32-2.836c2-1.84,5.146-2.364,7.231-2.711q1.492-.248,3.042-.355-.6-.538-1.15-1.084a10.4,10.4,0,0,1-6.717,1.416,11.957,11.957,0,0,1-8.574-4.578,1.56,1.56,0,0,1-.136-1.573,2.084,2.084,0,0,1,1.452-1.122,24.719,24.719,0,0,1,9.157-.213c-.629-1-1.254-2.088-1.892-3.289-2.545.492-5.488-.583-7.422-1.8ZM158.6,30.918c-.082.66-.193,1.348-.309,2.061-.751,4.656-1.023,8.073,2.351,9.631l.06.03a.593.593,0,0,1,.061.027c.027.01.073.029.1.04a.337.337,0,0,1,.035.017c2.868-4.118,1.072-8.912-2.3-11.806ZM178.35,73.136a18.276,18.276,0,0,0-3.9,2.618,17.355,17.355,0,0,0-1.674,1.7l-.212.239a5.443,5.443,0,0,0-.437.529c.5.085,2.025.11,6.059-1.107l.2-.059a16.7,16.7,0,0,0,7.717-4.416,1.272,1.272,0,0,1,.307-.244,1.1,1.1,0,0,1,.337-1.14c1.61-1.449,1.677-3.94,1.632-4.944a9.512,9.512,0,0,0-2.3-5.71,11.281,11.281,0,0,0-.171,9.722,1.086,1.086,0,0,1-.221,1.213,1.408,1.408,0,0,1-1.3.376l-.113-.029a1.447,1.447,0,0,1-.285-.112l-.495-.265c-.191-.1-.38-.207-.566-.31a1.294,1.294,0,0,1-.958.679,13.023,13.023,0,0,0-3.61,1.263Zm-9.7-5.555a14.192,14.192,0,0,0-5.286,1.614,10.966,10.966,0,0,0,12.592-2.149,1.289,1.289,0,0,1,.322-.243,1.059,1.059,0,0,1-.03-.248,1.144,1.144,0,0,1,.524-.942c3.892-2.629,5-7.271,2.734-11.019-2.9,2.864-4.046,6.628-3,9.98a1.124,1.124,0,0,1-.557,1.309,1.426,1.426,0,0,1-.164.081,1.073,1.073,0,0,1-.088.486,1.283,1.283,0,0,1-1.264.749,30.02,30.02,0,0,0-5.779.381Zm4.906-6.613c-.149.157-.3.306-.461.448q.2.2.409.4c.006-.281.025-.563.053-.846ZM157.553,60.1a9.858,9.858,0,0,0,6.088,2.8,7.144,7.144,0,0,0,5.626-1.548,1.364,1.364,0,0,1,.691-.332,1.18,1.18,0,0,1,.544-.718,7.881,7.881,0,0,0,3.075-4.66,7.377,7.377,0,0,0-.422-5.972,9.779,9.779,0,0,0-3.561,7.755,1.166,1.166,0,0,1-.742,1.131c.1.144.208.286.312.426a1.082,1.082,0,0,1-.052,1.375,1.4,1.4,0,0,1-1.468.393,21.669,21.669,0,0,0-10.09-.652Zm10.639-8.111a13.483,13.483,0,0,1-1.228.786c.171.322.341.635.51.942a11.748,11.748,0,0,1,.718-1.728Zm-4.2-.13.06,0a1.221,1.221,0,0,1,.584-.589c2.519-1.239,3.778-2.516,4.345-4.406a9.9,9.9,0,0,0,.1-6.329c-1.913,1.957-4.01,4.784-4.422,8.046a1.246,1.246,0,0,1-1.127,1.034,1.489,1.489,0,0,1-.426-.011,1.271,1.271,0,0,1-.344.285A1.423,1.423,0,0,1,161.1,49.7a16.688,16.688,0,0,0-1.519-1.3,17.67,17.67,0,0,0-5.807-2.867,8.121,8.121,0,0,0,3.672,5.2c1.793,1.133,4.42,1.921,5.969,1.242a1.411,1.411,0,0,1,.576-.121Z" transform="translate(-12.62 70.829)" fill="#bababa"/>
  </g>
  <text id="_1" data-name="1" transform="translate(162 106.792)" fill="#fff" font-size="50" font-family="Poppins-Bold, Poppins" font-weight="700"><tspan x="0" y="0">1</tspan></text>
  <text id="_2" data-name="2" transform="translate(44 121.792)" fill="#fff" font-size="40" font-family="Poppins-Bold, Poppins" font-weight="700"><tspan x="0" y="0">2</tspan></text>
  <text id="_3" data-name="3" transform="translate(283 123.792)" fill="#fff" font-size="30" font-family="Poppins-Bold, Poppins" font-weight="700"><tspan x="0" y="0">3</tspan></text>
</svg>
