<svg xmlns="http://www.w3.org/2000/svg" width="17.249" height="21.1" viewBox="0 0 17.249 21.1">
  <g id="mima" transform="translate(-130.562 -37.072)">
    <path d="M427.9,548.913a1.78,1.78,0,0,0-1.778,1.778,1.76,1.76,0,0,0,.358,1.07l.016.019a1.706,1.706,0,0,1,.473.911v1.015a.93.93,0,0,0,1.861,0v-1.034c0-.012,0-.023,0-.035h0a.734.734,0,0,1,.034-.145,2.119,2.119,0,0,1,.424-.692l.011-.014a1.759,1.759,0,0,0,.377-1.094A1.78,1.78,0,0,0,427.9,548.913Zm.772,2.37a2.155,2.155,0,0,0-.646,1.4v1.024a.126.126,0,1,1-.252,0v-1.02a2.351,2.351,0,0,0-.658-1.419.963.963,0,0,1-.189-.576.973.973,0,0,1,1.947,0A.963.963,0,0,1,428.673,551.282Z" transform="translate(-288.714 -502.291)" fill="#797979" stroke="#707070" stroke-width="1"/>
    <path d="M145.938,43.213h-.986V40.63a.4.4,0,0,0,0-.051,5.734,5.734,0,0,0-11.421.735v1.9h-1.094a1.374,1.374,0,0,0-1.372,1.372v9.724a1.374,1.374,0,0,0,1.372,1.372h8.384l.036,0H145.9l.036,0a1.374,1.374,0,0,0,1.372-1.372V44.585A1.374,1.374,0,0,0,145.938,43.213Zm.568,11.1a.569.569,0,0,1-.525.566H140.7l-.036,0h-8.225a.568.568,0,0,1-.568-.568V44.585a.568.568,0,0,1,.568-.568h1.5a.368.368,0,0,1,.126,0h7.625a3.567,3.567,0,0,0,1.849-.537.4.4,0,0,0-.443-.671,2.778,2.778,0,0,1-1.421.4h-7.334v-1.9a4.93,4.93,0,0,1,9.816-.658v2.931a.4.4,0,0,0,.014.107l.007.027a.4.4,0,0,0,.388.3h1.38a.568.568,0,0,1,.568.568v9.724Z" transform="translate(0 1.992)" fill="#797979" stroke="#707070" stroke-width="1"/>
  </g>
</svg>
