<svg xmlns="http://www.w3.org/2000/svg" width="30" height="41" viewBox="0 0 30 41">
  <g id="sharpicons_nurse" transform="translate(-165 -32)">
    <path d="M183.932,49.172a10.91,10.91,0,1,0-17.864,0A16.958,16.958,0,0,0,160,61.875v9.758A1.365,1.365,0,0,0,161.364,73h27.273A1.365,1.365,0,0,0,190,71.633V61.875a16.946,16.946,0,0,0-6.068-12.7ZM175,34.733a8.192,8.192,0,0,1,6.14,13.6l-.044.046q-.05.045-.1.094a8.108,8.108,0,0,1-12,0q-.043-.048-.091-.092A8.189,8.189,0,0,1,175,34.733Zm12.273,35.533H162.727V61.875A14.349,14.349,0,0,1,167.9,51.2a10.8,10.8,0,0,0,14.205,0,14.349,14.349,0,0,1,5.171,10.672Z" transform="translate(5)" fill="#2d5215"/>
    <path d="M486.25,579.75v-2.5a1.25,1.25,0,0,0-2.5,0v2.5h-2.5a1.25,1.25,0,0,0,0,2.5h2.5v2.5a1.25,1.25,0,0,0,2.5,0v-2.5h2.5a1.25,1.25,0,0,0,0-2.5Z" transform="translate(-300 -522.5)" fill="#2d5215"/>
  </g>
</svg>
