<svg xmlns="http://www.w3.org/2000/svg" width="35.508" height="35.507" viewBox="0 0 35.508 35.507">
  <path d="M30.045,7.853h-4.78V5.463A5.463,5.463,0,0,0,19.8,0h-4.1a5.463,5.463,0,0,0-5.463,5.463v6.431H5.463A5.463,5.463,0,0,0,0,17.356V31.41a4.1,4.1,0,0,0,4.1,4.1H31.411a4.1,4.1,0,0,0,4.1-4.1v-18.1a5.463,5.463,0,0,0-5.463-5.463ZM2.731,31.41V17.356a2.731,2.731,0,0,1,2.731-2.731h4.78V32.776H4.1A1.366,1.366,0,0,1,2.731,31.41ZM12.974,13.259v-7.8a2.731,2.731,0,0,1,2.731-2.731h4.1a2.731,2.731,0,0,1,2.731,2.731V32.776h-9.56Zm19.8,18.151a1.366,1.366,0,0,1-1.366,1.366H25.265V10.584h4.78a2.731,2.731,0,0,1,2.731,2.731Z" fill="#2d5215"/>
  <path d="M1.146,1.272,3,0" transform="translate(15.215 7.873)" fill="#2d5215" stroke="#2d5215" stroke-linecap="round" stroke-width="1.5"/>
  <path d="M0,0V4" transform="translate(18.215 7.873)" fill="none" stroke="#2d5215" stroke-linecap="round" stroke-width="1.5"/>
</svg>
