<svg xmlns="http://www.w3.org/2000/svg" width="50.691" height="44.522" viewBox="0 0 50.691 44.522">
  <path d="M122.781,99.389a14.32,14.32,0,0,0,.822,1.952c1.21,2.337,2.973,3.852,5.453,4.027,1.745.124,3.228-.439,5.416-1.716a10.138,10.138,0,0,1,2.408-1.286c.316-.1.288-.11.367.007a5.615,5.615,0,0,1,.715,1.349,8.254,8.254,0,0,1,.252.907c.019.08.18.8.239,1.042.112.474.228.915.367,1.39a36.694,36.694,0,0,0,1.53,4.156c.583,1.369,1.072,2.726,1.594,4.357.271.848,1.12,3.644,1.256,4.075,1.08,3.435,1.942,5.294,3.338,6.608.239.225,1.2,1.111,1.228,1.138.538.5.966.907,1.378,1.316a18.244,18.244,0,0,1,2.58,3.051c.929,1.473.974,2.364.216,3.038-1.088.966-3.784.737-7.507-.66a45.407,45.407,0,0,1-4.214-1.857q-2.9-1.449-5.658-3.173s0,0-.236-.17q-1.877-1.338-3.748-2.685c-3.029-2.175-6.059-4.365-8.885-6.429l-.5-.361c-4.568-3.339-8.086-5.97-10.178-7.629q2.6-3.347,5.3-6.625l.511-.618c.078-.1.149-.191.246-.32q1.1-1.44,2.213-2.866l.133-.169q.759-.972,1.545-1.922c.223-.267.406-.479.544-.63a1.7,1.7,0,0,1,.909-.339C122.535,98.633,122.692,99.131,122.781,99.389Zm-8.617,4.051q-3.15,3.838-6.184,7.77l-.819,1.063,1.029.859c1.887,1.574,5.865,4.566,11.362,8.584l.5.362q6.3,4.6,12.659,9.132l.292.207c.139.093.3.192.521.33q2.66,1.637,5.458,3.031a48.145,48.145,0,0,0,4.477,1.971c4.642,1.742,8.187,2.044,10.335.133,1.981-1.76,1.864-4.115.29-6.608a20.721,20.721,0,0,0-2.973-3.541q-.711-.7-1.446-1.382c-.038-.035-.987-.91-1.213-1.124-.932-.877-1.651-2.428-2.591-5.416-.129-.41-.98-3.214-1.26-4.087-.546-1.708-1.064-3.141-1.652-4.523A27.79,27.79,0,0,1,140.93,104a10.854,10.854,0,0,0-.339-1.2,8.311,8.311,0,0,0-1.044-2,2.88,2.88,0,0,0-3.519-1.084,8.512,8.512,0,0,0-1.512.689q-.365.2-.725.416l-.723.426c-1.729,1.009-2.8,1.415-3.814,1.343-1.351-.1-2.369-.97-3.175-2.529a11.655,11.655,0,0,1-.662-1.577c-.111-.327-.384-1.2-.393-1.231-.737-2.211-3.288-2.049-4.933-1.02a19.032,19.032,0,0,0-2.862,3.285l-.136.172q-1.225,1.563-2.425,3.145c-.1.118-.268.322-.5.608Z" transform="translate(-104.581 -95.505)" fill="#36ab60"/>
  <path d="M97.625,361.454a1.171,1.171,0,0,1,.724,2.227l-5.535,1.8a1.171,1.171,0,0,1-.723-2.227l5.534-1.8Zm1.932,3.885a1.171,1.171,0,0,1,.724,2.227l-5.535,1.8a1.171,1.171,0,0,1-.723-2.227l5.534-1.8Zm-3.829-7.99a1.171,1.171,0,0,1,.724,2.227l-5.534,1.8a1.171,1.171,0,0,1-.724-2.227Zm-31.167,4.075a1.394,1.394,0,1,0-2.161-1.759l-2.334,2.869a1.394,1.394,0,0,0,.22,1.976q.532.418,1.067.831c.85.66,1.8,1.394,2.842,2.183q4.417,3.372,8.922,6.626,1.006.725,1.974,1.411c3.273,2.317,6.133,4.233,8.468,5.647a47.256,47.256,0,0,0,12.22,5.631c5.243,1.387,9.707.845,13.073-2.168A1.394,1.394,0,1,0,107,382.594c-4.684,4.192-12.074,2.238-21.992-3.769-2.269-1.375-5.078-3.255-8.3-5.537q-.981-.695-1.956-1.4-4.474-3.232-8.862-6.582c-1-.766-1.931-1.477-2.758-2.118l1.435-1.765Z" transform="translate(-59.754 -343.042)" fill="#36ab60"/>
</svg>
