<svg xmlns="http://www.w3.org/2000/svg" width="43.228" height="41.521" viewBox="0 0 43.228 41.521">
  <path d="M152.411,157.23h29.1a5.576,5.576,0,0,1,5.571,5.581v27.957a5.576,5.576,0,0,1-5.57,5.58h-29.1a5.576,5.576,0,0,1-5.571-5.58V162.811A5.576,5.576,0,0,1,152.411,157.23Z" transform="translate(-145.462 -155.928)" fill="#fff"/>
  <path d="M260.828,709.11V713.5c0,3.639-2.439,6.591-5.448,6.591H231.16c-3.009,0-5.449-2.95-5.45-6.591V709.11Z" transform="translate(-219.204 -679.008)" fill="#87bdff"/>
  <path d="M231.16,157.23h24.219c3.01,0,5.449,2.951,5.449,6.592v26.361c0,3.639-2.439,6.591-5.448,6.591H231.16c-3.01,0-5.38.427-5.38-.938l-.069-32.015c0-3.64,2.44-6.591,5.449-6.591Z" transform="translate(-219.204 -155.928)" fill="#cbe1ff"/>
  <path d="M566.08,157.23h15.814c2.512,0,4.547,2.951,4.547,6.591v26.362c0,3.641-2.036,6.591-4.547,6.591H566.08Z" transform="translate(-544.818 -155.928)" fill="#76b2ff"/>
  <path d="M278.5,265.662a19.3,19.3,0,0,1,29.463-.374l-6.43,5.646a9.937,9.937,0,0,0-16.557.417Z" transform="translate(-272.029 -252.302)" fill="#fff"/>
  <path d="M162.05,674.108H132.475c-3.768,0-6.821-3.579-6.825-7.989V659.46h2.277v6.658c0,2.94,2.038,5.323,4.55,5.326H162.05c2.512,0,4.548-2.386,4.55-5.326V659.46h2.277v6.658C168.874,670.53,165.819,674.105,162.05,674.108Z" transform="translate(-125.65 -632.586)"/>
  <path d="M162.105,172.063H132.418a6.686,6.686,0,0,1-6.768-6.585V143.785a6.686,6.686,0,0,1,6.768-6.585h29.688a6.686,6.686,0,0,1,6.77,6.585v21.693A6.686,6.686,0,0,1,162.105,172.063Zm-29.688-32.65a4.439,4.439,0,0,0-4.493,4.372v21.693a4.439,4.439,0,0,0,4.493,4.372h29.688a4.439,4.439,0,0,0,4.493-4.372V143.785a4.439,4.439,0,0,0-4.493-4.372Z" transform="translate(-125.65 -137.2)"/>
  <path d="M259.1,254.2l-8.639-7.587.774-.992a19.465,19.465,0,0,1,6.86-5.487,21,21,0,0,1,9.073-2.049A20.747,20.747,0,0,1,276,240.021a19.561,19.561,0,0,1,6.777,5.2l.825,1-8.553,7.512-.841-1.28a7.941,7.941,0,0,0-2.917-2.627,8.808,8.808,0,0,0-4.12-1.009,8.318,8.318,0,0,0-7.255,3.991Zm-4.954-7.894,4.371,3.836a11.136,11.136,0,0,1,8.647-4,11.481,11.481,0,0,1,5.373,1.324,10.769,10.769,0,0,1,2.966,2.313l4.356-3.823a17.051,17.051,0,0,0-4.989-3.519,18.1,18.1,0,0,0-7.7-1.684,18.321,18.321,0,0,0-7.916,1.785,16.949,16.949,0,0,0-5.106,3.769Z" transform="translate(-245.772 -231.528)"/>
  <path d="M486.335,303.65a1.466,1.466,0,0,1,1.466,1.465v2.926a1.465,1.465,0,0,1-2.931,0v-2.926A1.465,1.465,0,0,1,486.335,303.65Z" transform="translate(-465.127 -294.621)"/>
</svg>
