<svg xmlns="http://www.w3.org/2000/svg" width="42.891" height="44.054" viewBox="0 0 42.891 44.054">
  <path id="xietang" d="M117.533,99.5c3.577,3.609,9.533,12.383,9.533,17.621a9.533,9.533,0,0,1-19.065,0C108,111.878,113.812,103.2,117.533,99.5Zm11.438,17.781a19.6,19.6,0,0,0-2.272-7.845A67.422,67.422,0,0,1,135.4,98.2c5.812,5.87,15.488,20.121,15.488,28.635A15.491,15.491,0,0,1,120,128.39,11.4,11.4,0,0,0,128.971,117.276Zm-.122,9.209a1.648,1.648,0,0,0,1.64,1.656h2.622v2.484a1.645,1.645,0,0,0,1.64,1.656h1.64a1.648,1.648,0,0,0,1.64-1.656v-2.484h2.293a1.651,1.651,0,0,0,1.64-1.656v-1.656a1.648,1.648,0,0,0-1.64-1.656h-2.293v-2.484a1.648,1.648,0,0,0-1.64-1.656h-1.64a1.651,1.651,0,0,0-1.64,1.656v2.484h-2.622a1.648,1.648,0,0,0-1.64,1.656Z" transform="translate(-108 -98.2)" fill="#d81e06"/>
</svg>