<svg xmlns="http://www.w3.org/2000/svg" width="27.71" height="50.381" viewBox="0 0 27.71 50.381">
  <path d="M283.261,70.969a3.7,3.7,0,0,0,0-7.4h-.551V43.18a7.13,7.13,0,0,0-3.936-6.376v-.472a4.136,4.136,0,0,0-3.149-4.015V28.223a1.023,1.023,0,1,0-2.047,0V32.4a4.062,4.062,0,0,0-2.991,3.936V36.8a7.13,7.13,0,0,0-3.936,6.376V63.569H266.1a3.7,3.7,0,0,0,0,7.4h3.621V74.2h-2.913a1.023,1.023,0,1,0,0,2.047h15.744a1.023,1.023,0,1,0,0-2.047H279.64V70.969Z" transform="translate(-262.4 -25.862)" fill="#98ccf6"/>
  <path d="M556.223,10.863A1.042,1.042,0,0,1,555.2,9.84V1.023A.992.992,0,0,1,556.223,0a1.042,1.042,0,0,1,1.023,1.023V9.84A1.042,1.042,0,0,1,556.223,10.863Z" transform="translate(-540.794)" fill="#05498f"/>
  <path d="M521.34,127.845V126.27a3.07,3.07,0,1,0-6.14,0v1.574Z" transform="translate(-502.762 -117.139)" fill="#fff"/>
  <path d="M501.564,109.091h-6.14a1.042,1.042,0,0,1-1.023-1.023v-1.574a4.093,4.093,0,0,1,8.187,0v1.574A1.042,1.042,0,0,1,501.564,109.091Zm-5.2-2.047h4.093v-.551a2.047,2.047,0,1,0-4.093,0v.551Z" transform="translate(-482.985 -97.362)" fill="#05498f"/>
  <path d="M444.1,232.2h-3.779a5.107,5.107,0,0,1-5.117-5.117V205.117A5.107,5.107,0,0,1,440.317,200H444.1a5.107,5.107,0,0,1,5.117,5.117V227.08A5.157,5.157,0,0,1,444.1,232.2Z" transform="translate(-426.698 -190.16)" fill="#fff"/>
  <path d="M423.217,213.443h-1.653a7.19,7.19,0,0,1-7.164-7.164V186.364a7.19,7.19,0,0,1,7.164-7.164H423.3a7.19,7.19,0,0,1,7.164,7.164V206.2A7.223,7.223,0,0,1,423.217,213.443Zm-1.653-32.2a5.107,5.107,0,0,0-5.117,5.117V206.2a5.107,5.107,0,0,0,5.117,5.117H423.3a5.107,5.107,0,0,0,5.117-5.117V186.364a5.107,5.107,0,0,0-5.117-5.117Z" transform="translate(-406.922 -170.383)" fill="#05498f"/>
  <path d="M369.031,768.474H351a2.253,2.253,0,0,1-2.2-2.2V765.4a2.253,2.253,0,0,1,2.2-2.2h18.027a2.253,2.253,0,0,1,2.2,2.2v.866A2.253,2.253,0,0,1,369.031,768.474Z" transform="translate(-344.549 -725.65)" fill="#fff"/>
  <path d="M348.782,748.2H331.7a3.7,3.7,0,0,1,0-7.4h17.082a3.7,3.7,0,1,1,0,7.4ZM331.7,742.847a1.653,1.653,0,0,0,0,3.306h17.082a1.777,1.777,0,0,0,1.653-1.653,1.663,1.663,0,0,0-1.653-1.653Z" transform="translate(-324.773 -704.353)" fill="#05498f"/>
  <path d="M496,875.2h7.872v4.959H496Z" transform="translate(-484.507 -832.14)" fill="#fff"/>
  <path d="M433.893,411.107h-7.872A1.042,1.042,0,0,1,425,410.084v-4.959a1.042,1.042,0,0,1,1.023-1.023h7.872a1.042,1.042,0,0,1,1.023,1.023v4.959A.992.992,0,0,1,433.893,411.107Zm-6.849-2.047h5.825v-2.913h-5.825Zm1.181-20.7h-4.8a1.023,1.023,0,0,1,0-2.047h4.8a1.042,1.042,0,0,1,1.023,1.023A.992.992,0,0,1,428.225,388.357Zm1.023-5.51h-5.825a1.023,1.023,0,0,1,0-2.047h5.825a1.042,1.042,0,0,1,1.023,1.023A.949.949,0,0,1,429.249,382.847Zm.708,11.651h-5.825a1.023,1.023,0,0,1,0-2.047h5.825a1.023,1.023,0,1,1,0,2.047Z" transform="translate(-414.528 -362.065)" fill="#05498f"/>
  <path d="M412.046,324.174H396.223a1.023,1.023,0,0,1,0-2.047h15.744a1.042,1.042,0,0,1,1.023,1.023A.93.93,0,0,1,412.046,324.174ZM407.9,291.717a1.181,1.181,0,1,0-.992-1.343A1.181,1.181,0,0,0,407.9,291.717Zm.131,12.069a1.042,1.042,0,0,1-1.023-1.023V294.1a1.023,1.023,0,1,1,2.047,0v8.659A.992.992,0,0,1,408.031,303.785Z" transform="translate(-388.666 -275.131)" fill="#05498f"/>
</svg>
